{
  "accessors": [
    {
      "bufferView": 2,
      "componentType": 5126,
      "count": 400,
      "max": [
        0.5404685735702515,
        0.4341592490673065,
        5.1822991371154785
      ],
      "min": [
        -1.9030293226242065,
        -1.0847960710525513,
        0.011172615922987461
      ],
      "type": "VEC3"
    },
    {
      "bufferView": 2,
      "byteOffset": 4800,
      "componentType": 5126,
      "count": 400,
      "max": [
        0.9939854145050049,
        0.9820168614387512,
        0.9953299760818481
      ],
      "min": [
        -0.9989066123962402,
        -0.9987913966178894,
        -0.9312120676040649
      ],
      "type": "VEC3"
    },
    {
      "bufferView": 1,
      "componentType": 5126,
      "count": 400,
      "max": [
        1.9263426065444946,
        2.2893576622009277
      ],
      "min": [
        0.016215331852436066,
        -0.02397826313972473
      ],
      "type": "VEC2"
    },
    {
      "bufferView": 0,
      "componentType": 5125,
      "count": 1332,
      "type": "SCALAR"
    },
    {
      "bufferView": 2,
      "byteOffset": 9600,
      "componentType": 5126,
      "count": 255,
      "max": [
        1.8050978183746338,
        2.0712063312530518,
        5.555436611175537
      ],
      "min": [
        -2.3328824043273926,
        -2.059142827987671,
        3.1789891719818115
      ],
      "type": "VEC3"
    },
    {
      "bufferView": 2,
      "byteOffset": 12660,
      "componentType": 5126,
      "count": 255,
      "max": [
        0.915200412273407,
        0.9518598318099976,
        0.9997186660766602
      ],
      "min": [
        -0.8908540606498718,
        -0.9329454898834229,
        0.14595310389995575
      ],
      "type": "VEC3"
    },
    {
      "bufferView": 1,
      "byteOffset": 3200,
      "componentType": 5126,
      "count": 255,
      "max": [
        0.9998999834060669,
        0.9998999834060669
      ],
      "min": [
        9.998001769417897e-05,
        9.998001769417897e-05
      ],
      "type": "VEC2"
    },
    {
      "bufferView": 0,
      "byteOffset": 5328,
      "componentType": 5125,
      "count": 1080,
      "type": "SCALAR"
    }
  ],
  "asset": {
    "extras": {
      "author": "3Dev (https://sketchfab.com/3Dev)",
      "license": "CC-BY-SA-4.0 (http://creativecommons.org/licenses/by-sa/4.0/)",
      "source": "https://sketchfab.com/3d-models/low-poly-stylized-tree-bc1df9f4b7de421886b84af8ee8bcea1",
      "title": "Low Poly Stylized Tree"
    },
    "generator": "Sketchfab-14.10.0",
    "version": "2.0"
  },
  "bufferViews": [
    {
      "buffer": 0,
      "byteLength": 9648,
      "name": "floatBufferViews",
      "target": 34963
    },
    {
      "buffer": 0,
      "byteLength": 5240,
      "byteOffset": 9648,
      "byteStride": 8,
      "name": "floatBufferViews",
      "target": 34962
    },
    {
      "buffer": 0,
      "byteLength": 15720,
      "byteOffset": 14888,
      "byteStride": 12,
      "name": "floatBufferViews",
      "target": 34962
    }
  ],
  "buffers": [
    {
      "byteLength": 30608,
      "uri": "scene.bin"
    }
  ],
  "images": [
    {
      "uri": "textures/Bark_baseColor.jpeg"
    },
    {
      "uri": "textures/Tree_Leaves_baseColor.png"
    }
  ],
  "materials": [
    {
      "doubleSided": true,
      "name": "Bark",
      "pbrMetallicRoughness": {
        "baseColorTexture": {
          "index": 0
        },
        "metallicFactor": 0.0,
        "roughnessFactor": 0.693335446355646
      }
    },
    {
      "alphaCutoff": 0.7481927563969718,
      "alphaMode": "MASK",
      "doubleSided": true,
      "name": "Tree_Leaves",
      "pbrMetallicRoughness": {
        "baseColorTexture": {
          "index": 1
        },
        "metallicFactor": 0.0,
        "roughnessFactor": 0.2761882702880619
      }
    }
  ],
  "meshes": [
    {
      "name": "Tree_1_Bark_0",
      "primitives": [
        {
          "attributes": {
            "NORMAL": 1,
            "POSITION": 0,
            "TEXCOORD_0": 2
          },
          "indices": 3,
          "material": 0,
          "mode": 4
        }
      ]
    },
    {
      "name": "Tree_1_Tree_Leaves_0",
      "primitives": [
        {
          "attributes": {
            "NORMAL": 5,
            "POSITION": 4,
            "TEXCOORD_0": 6
          },
          "indices": 7,
          "material": 1,
          "mode": 4
        }
      ]
    }
  ],
  "nodes": [
    {
      "children": [
        1
      ],
      "matrix": [
        1.0,
        0.0,
        0.0,
        0.0,
        0.0,
        2.220446049250313e-16,
        -1.0,
        0.0,
        0.0,
        1.0,
        2.220446049250313e-16,
        0.0,
        0.0,
        0.0,
        0.0,
        1.0
      ],
      "name": "Sketchfab_model"
    },
    {
      "children": [
        2
      ],
      "matrix": [
        0.009999999776482582,
        0.0,
        0.0,
        0.0,
        0.0,
        0.0,
        0.009999999776482582,
        0.0,
        0.0,
        -0.009999999776482582,
        0.0,
        0.0,
        0.0,
        0.0,
        0.0,
        1.0
      ],
      "name": "695471f8501f431da24572fbdcc1d45c.fbx"
    },
    {
      "children": [
        3
      ],
      "name": "RootNode"
    },
    {
      "children": [
        4,
        5
      ],
      "matrix": [
        100.0,
        0.0,
        0.0,
        0.0,
        0.0,
        -1.629206793918314e-05,
        -99.99999999999868,
        0.0,
        0.0,
        99.99999999999868,
        -1.629206793918314e-05,
        0.0,
        0.0,
        0.0,
        0.0,
        1.0
      ],
      "name": "Tree_1"
    },
    {
      "mesh": 0,
      "name": "Tree_1_Bark_0"
    },
    {
      "mesh": 1,
      "name": "Tree_1_Tree_Leaves_0"
    }
  ],
  "samplers": [
    {
      "magFilter": 9729,
      "minFilter": 9987,
      "wrapS": 10497,
      "wrapT": 10497
    }
  ],
  "scene": 0,
  "scenes": [
    {
      "name": "Sketchfab_Scene",
      "nodes": [
        0
      ]
    }
  ],
  "textures": [
    {
      "sampler": 0,
      "source": 0
    },
    {
      "sampler": 0,
      "source": 1
    }
  ]
}
